<svg height="295" width="502" viewBox="-146 399 502 295" style="background-color:transparent;" preserveAspectRatio="xMinYMin meet" xmlns:xlink="http://www.w3.org/1999/xlink" xmlns="http://www.w3.org/2000/svg"><g transform="translate(0,0)"><g transform="matrix(1,0,0,1,267,409)"><path style="fill:none;stroke:#333333;stroke-width:3.0;" d="m0.03469242091847677,11.37604499864167l0.8276732485979085,50.251855145751215l18.217646201841685,11.347303704923467l-0.8282250812581321,-48.63116920517899"/><path style="fill:none;stroke:#333333;stroke-width:3.0;" d="m42.2660401485311,0.030449090535174955c0,0 -39.74777614915867,7.294397367341528 -40.57538988639126,9.726472138266073c-0.828227786320192,2.4315981764639956 16.56120144944954,14.589615536254005 16.56120144944954,14.589615536254005l44.71481110358417,-13.778875403917432l-20.700757919745445,-10.537251986807691z"/><path style="fill:none;stroke:#333333;stroke-width:3.0;" d="m62.96666281517355,10.568482162708769l-0.8276705435358485,50.251722758401066l-43.05890736360401,12.158083553465083l-0.9087926496507958,-48.63116920517899"/><path style="fill:none;stroke:#333333;stroke-width:3.0;" d="m6.658848393251103,30.01618390017486l5.796488133858837,4.052747472761756"/></g><text style="font-weight:bold; font-size: 12px; text-anchor: middle; font-family: arial,helvetica; fill: #333333;" y="497" x="298">Server</text></g><g transform="translate(0,0)"><path style="fill:none;stroke:#333333;stroke-width:2;" d="M298,626 C111,626 111,626  -76,626"/><polyline style="fill:#ffffff;stroke:#333333;stroke-width:2;fill-opacity:0;" points="-58,616 -76,626 -58,636"/><text style="font-weight:Normal; font-size: 12px; text-anchor: middle; font-family: arial,helvetica; fill: #333333;" y="641" x="-62"/><text style="font-weight:Normal; font-size: 12px; text-anchor: start; font-family: arial,helvetica; fill: #333333;" y="626" x="111"/><text style="font-weight:Normal; font-size: 12px; text-anchor: middle; font-family: arial,helvetica; fill: #333333;" y="641" x="284"/></g><g transform="translate(0,0)"><g transform="matrix(1,0,0,1,-131,423)"><path style="fill:none;stroke:#333333;stroke-width:3.0;" d="m13.56624,-0.1244l74.6108,-0.634034c0.851502,-0.007202 1.582534,0.687012 1.537072,1.53711l-2.53566,47.4196c-0.045456,0.849854 -0.68554,1.540528 -1.537072,1.536866l-73.343,-0.316894c-0.851532,-0.003906 -1.560294,-0.686036 -1.537074,-1.53711l1.267828,-46.4686c0.023226,-0.851318 0.685566,-1.53003 1.537074,-1.53711z"/><path style="fill:none;stroke:#333333;stroke-width:3.0;" d="m0.033878,52.5556c-0.045004,0.62378 -0.033878,0.55664 -0.033878,1.281494c0,0.949952 0.717246,1.682128 1.658768,1.687988l96.9066,0.59961c0.94152,0.006104 1.7639,-0.374756 1.658768,-1.31958c-0.079238,-0.712158 0.097022,-0.945068 -0.1204,-1.731446l-39.216,-0.32251c-0.066238,0.860352 -0.787358,1.54663 -1.658768,1.538086l-16.45634,-0.15918c-0.871406,-0.0083 -1.59254,-0.708008 -1.658768,-1.569824z"/></g></g><g transform="translate(0,0)"><rect style="fill: #ffffff;fill-opacity: 1;stroke-opacity:0;stroke-width: 1;stroke:%stroke%;" rx="4" height="14" width="68" y="575" x="74"/><text style="font-weight:Normal; font-size: 12px; text-anchor: start; font-family: arial,helvetica; fill: #333333;" y="575" x="74"><tspan alignment-baseline="before-edge" x="74">CreateGame</tspan></text></g><g transform="translate(0,0)"><rect style="fill: #ffffff;fill-opacity: 1;stroke-opacity:0;stroke-width: 1;stroke:%stroke%;" rx="4" height="14" width="20" y="608" x="111"/><text style="font-weight:Normal; font-size: 12px; text-anchor: start; font-family: arial,helvetica; fill: #333333;" y="608" x="111"><tspan alignment-baseline="before-edge" x="111">Ack</tspan></text></g><g transform="translate(0,0)"><g transform="matrix(1,0,0,1,-118,502)"><path style="fill:none;stroke:#333333;stroke-width:3.0;" d="m79.18272,-0.41495999999999994l-76.2192,-0.025114742857142856c-1.892656,0 -2.9585600000000003,0.7234342285714286 -2.9585600000000003,2.0077462857142856c0.22984000000000002,10.141798285714284 -0.7147072,22.029142857142855 -0.6103728,34.941542857142856c-0.0655616,1.283585714285714 0.7607232,2.525425714285714 2.653376,2.525425714285714l76.01424,-0.9318425142857143c1.892656,0 1.890416,-0.3092005714285714 1.890416,-1.593448571428571l0.9679264000000001,-35.43456571428571c0,-1.2843131428571428 0.15483360000000002,-1.4898062857142855 -1.7378240000000003,-1.4898062857142855z"/></g><text style="font-weight:bold; font-size: 12px; text-anchor: middle; font-family: arial,helvetica; fill: #333333;" y="526" x="-78">Client</text><line style="stroke:#333333;stroke-width:2;stroke-dasharray:8,2;" y2="679" x2="-78" y1="540" x1="-78"/></g><g transform="translate(0,0)"><g transform="matrix(1,0,0,1,256,502)"><path style="fill:none;stroke:#333333;stroke-width:3.0;" d="m84.13163999999999,-0.41495999999999994l-80.9829,-0.025114742857142856c-2.010947,0 -3.1434699999999998,0.7234342285714286 -3.1434699999999998,2.0077462857142856c0.244205,10.141798285714284 -0.7593764,22.029142857142855 -0.6485211,34.941542857142856c-0.06965919999999999,1.283585714285714 0.8082684,2.525425714285714 2.819212,2.525425714285714l80.76513,-0.9318425142857143c2.010947,0 2.008567,-0.3092005714285714 2.008567,-1.593448571428571l1.0284218,-35.43456571428571c0,-1.2843131428571428 0.16451069999999998,-1.4898062857142855 -1.846438,-1.4898062857142855z"/></g><text style="font-weight:bold; font-size: 12px; text-anchor: middle; font-family: arial,helvetica; fill: #333333;" y="526" x="298">Server</text><line style="stroke:#333333;stroke-width:2;stroke-dasharray:8,2;" y2="677" x2="298" y1="540" x1="298"/></g><g transform="translate(0,0)"><path style="fill:none;stroke:#333333;stroke-width:2;" d="M-78,566 C109,566 109,566  296,566"/><polyline style="fill:#ffffff;stroke:#333333;stroke-width:2;fill-opacity:0;" points="278,575 296,566 278,555"/><text style="font-weight:Normal; font-size: 12px; text-anchor: middle; font-family: arial,helvetica; fill: #333333;" y="551" x="282"/><text style="font-weight:Normal; font-size: 12px; text-anchor: start; font-family: arial,helvetica; fill: #333333;" y="566" x="109"/><text style="font-weight:Normal; font-size: 12px; text-anchor: middle; font-family: arial,helvetica; fill: #333333;" y="551" x="-64"/></g><g transform="translate(0,0)"><rect style="fill: #ffffff;fill-opacity: 1;stroke-opacity:0;stroke-width: 1;stroke:%stroke%;" rx="4" height="14" width="44" y="548" x="83"/><text style="font-weight:Normal; font-size: 12px; text-anchor: start; font-family: arial,helvetica; fill: #333333;" y="548" x="83"><tspan alignment-baseline="before-edge" x="83">Connect</tspan></text></g><g transform="translate(0,0)"><path style="fill:none;stroke:#333333;stroke-width:2;" d="M-78,596 C109,596 109,596  296,596"/><polyline style="fill:#ffffff;stroke:#333333;stroke-width:2;fill-opacity:0;" points="278,605 296,596 278,585"/><text style="font-weight:Normal; font-size: 12px; text-anchor: middle; font-family: arial,helvetica; fill: #333333;" y="581" x="282"/><text style="font-weight:Normal; font-size: 12px; text-anchor: start; font-family: arial,helvetica; fill: #333333;" y="596" x="109"/><text style="font-weight:Normal; font-size: 12px; text-anchor: middle; font-family: arial,helvetica; fill: #333333;" y="581" x="-64"/></g><text style="font-weight:Normal; font-size: 16px; text-anchor: end; font-family: Arial; fill: #ccc;" y="679" x="341">http://sketchboard.io</text></svg>